#N canvas 321 85 1029 549 10;
#X declare -lib mrpeach;
#X obj 18 10 import mrpeach;
#X obj 16 40 udpreceive 57120;
#X obj 16 67 unpackOSC;
#X obj 16 96 routeOSC /minibee/data;
#X obj 16 124 route 1;
#X obj 16 267 packOSC;
#X msg 16 238 /data \$1 \$2 \$3;
#X obj 16 296 udpsend;
#X msg 75 266 disconnect \, connect 127.0.0.1 9005;
#X obj 426 90 unpackOSC;
#X obj 426 63 udpreceive 9006;
#X obj 799 262 prepend set;
#X floatatom 400 263 5 0 0 0 - - -;
#X floatatom 483 261 5 0 0 0 - - -;
#X msg 246 184 /learn;
#X obj 16 207 pack f f f;
#X floatatom 595 261 5 0 0 0 - - -;
#X obj 603 146 prepend set;
#X floatatom 144 339 5 0 0 0 - - -;
#X floatatom 201 337 5 0 0 0 - - -;
#X floatatom 248 336 5 0 0 0 - - -;
#X floatatom 638 261 5 0 0 0 - - -;
#X obj 555 262 tgl 15 0 empty empty empty 17 7 0 10 -262144 -1 -1 0
1;
#X obj 681 261 tgl 15 0 empty empty empty 17 7 0 10 -262144 -1 -1 0
1;
#X floatatom 721 258 5 0 0 0 - - -;
#X msg 247 210 /clear;
#X obj 16 157 expr $f1 * 100 \; $f2 * 100 \; $f3 * 100;
#X obj 426 119 routeOSC /OSCGestureClassifier;
#X msg 799 290;
#X msg 603 174;
#X obj 426 201 routeOSC /phase /distance /repetition /interval /index
/detected /learned;
#X connect 1 0 2 0;
#X connect 2 0 3 0;
#X connect 3 0 4 0;
#X connect 4 0 26 0;
#X connect 5 0 7 0;
#X connect 6 0 5 0;
#X connect 8 0 7 0;
#X connect 9 0 27 0;
#X connect 10 0 9 0;
#X connect 11 0 28 0;
#X connect 14 0 5 0;
#X connect 15 0 6 0;
#X connect 17 0 29 0;
#X connect 25 0 5 0;
#X connect 26 0 15 0;
#X connect 26 0 18 0;
#X connect 26 1 15 1;
#X connect 26 1 19 0;
#X connect 26 2 15 2;
#X connect 26 2 20 0;
#X connect 27 0 30 0;
#X connect 27 1 17 0;
#X connect 30 0 12 0;
#X connect 30 1 13 0;
#X connect 30 2 22 0;
#X connect 30 3 16 0;
#X connect 30 4 21 0;
#X connect 30 5 23 0;
#X connect 30 6 24 0;
#X connect 30 7 11 0;
